{
    "asset" : {
        "generator" : "Khronos glTF Blender I/O v1.5.17",
        "version" : "2.0"
    },
    "extensionsUsed" : [
        "KHR_lights_punctual"
    ],
    "extensionsRequired" : [
        "KHR_lights_punctual"
    ],
    "extensions" : {
        "KHR_lights_punctual" : {
            "lights" : [
                {
                    "color" : [
                        1,
                        1,
                        1
                    ],
                    "intensity" : 1,
                    "type" : "directional",
                    "name" : "Sun"
                },
                {
                    "color" : [
                        0.6997754573822021,
                        0.7842311263084412,
                        0.27771955728530884
                    ],
                    "intensity" : 1,
                    "type" : "directional",
                    "name" : "Sun.001"
                },
                {
                    "color" : [
                        0.7281357049942017,
                        0.37341365218162537,
                        0.7632825374603271
                    ],
                    "intensity" : 1,
                    "type" : "directional",
                    "name" : "Sun.002"
                },
                {
                    "color" : [
                        1,
                        1,
                        1
                    ],
                    "intensity" : 1,
                    "type" : "directional",
                    "name" : "Sun.003"
                }
            ]
        }
    },
    "scene" : 0,
    "scenes" : [
        {
            "name" : "Scene",
            "nodes" : [
                0,
                2,
                4,
                6,
                8,
                9
            ]
        }
    ],
    "nodes" : [
        {
            "mesh" : 0,
            "name" : "Sphere"
        },
        {
            "extensions" : {
                "KHR_lights_punctual" : {
                    "light" : 0
                }
            },
            "name" : "Sun_Orientation",
            "rotation" : [
                -0.7071067690849304,
                0,
                0,
                0.7071067690849304
            ]
        },
        {
            "children" : [
                1
            ],
            "name" : "Sun",
            "translation" : [
                0,
                6.43117094039917,
                0
            ]
        },
        {
            "extensions" : {
                "KHR_lights_punctual" : {
                    "light" : 1
                }
            },
            "name" : "Sun.001_Orientation",
            "rotation" : [
                -0.7071067690849304,
                0,
                0,
                0.7071067690849304
            ]
        },
        {
            "children" : [
                3
            ],
            "name" : "Sun.001",
            "rotation" : [
                -0.7047942876815796,
                0,
                0,
                0.7094117403030396
            ],
            "translation" : [
                0,
                0.10865449905395508,
                -7.636164665222168
            ]
        },
        {
            "extensions" : {
                "KHR_lights_punctual" : {
                    "light" : 2
                }
            },
            "name" : "Sun.002_Orientation",
            "rotation" : [
                -0.7071067690849304,
                0,
                0,
                0.7071067690849304
            ]
        },
        {
            "children" : [
                5
            ],
            "name" : "Sun.002",
            "rotation" : [
                0.6921603679656982,
                -0.020958732813596725,
                0.005441926419734955,
                0.7214188575744629
            ],
            "translation" : [
                0,
                0.10865449905395508,
                9.575465202331543
            ]
        },
        {
            "extensions" : {
                "KHR_lights_punctual" : {
                    "light" : 3
                }
            },
            "name" : "Sun.003_Orientation",
            "rotation" : [
                -0.7071067690849304,
                0,
                0,
                0.7071067690849304
            ]
        },
        {
            "children" : [
                7
            ],
            "name" : "Sun.003",
            "rotation" : [
                0,
                0,
                -0.6698343753814697,
                0.7425105571746826
            ],
            "translation" : [
                7.518044948577881,
                0.2735147774219513,
                0.13590407371520996
            ]
        },
        {
            "mesh" : 1,
            "name" : "Cube.001",
            "rotation" : [
                0.16342903673648834,
                0.16495291888713837,
                -0.027726909145712852,
                0.9722720384597778
            ],
            "scale" : [
                0.059896793216466904,
                0.059896793216466904,
                0.2606457769870758
            ],
            "translation" : [
                0.7606214284896851,
                0.6096369028091431,
                -0.40751194953918457
            ]
        }
    ],
    "materials" : [
        {
            "doubleSided" : true,
            "name" : "Material.001",
            "pbrMetallicRoughness" : {
                "baseColorFactor" : [
                    0.7324771285057068,
                    0.09535802155733109,
                    0.09535802155733109,
                    1
                ],
                "metallicFactor" : 0,
                "roughnessFactor" : 0.5
            }
        },
        {
            "doubleSided" : true,
            "name" : "Material.002",
            "pbrMetallicRoughness" : {
                "baseColorFactor" : [
                    0,
                    0,
                    0,
                    1
                ],
                "metallicFactor" : 0,
                "roughnessFactor" : 0.5
            }
        },
        {
            "doubleSided" : true,
            "name" : "Material.004",
            "pbrMetallicRoughness" : {
                "baseColorFactor" : [
                    0.2585453391075134,
                    0.2585453391075134,
                    0.2585453391075134,
                    1
                ],
                "metallicFactor" : 0,
                "roughnessFactor" : 0.5
            }
        }
    ],
    "meshes" : [
        {
            "name" : "Sphere",
            "primitives" : [
                {
                    "attributes" : {
                        "POSITION" : 0,
                        "NORMAL" : 1,
                        "TEXCOORD_0" : 2
                    },
                    "indices" : 3,
                    "material" : 0
                },
                {
                    "attributes" : {
                        "POSITION" : 4,
                        "NORMAL" : 5,
                        "TEXCOORD_0" : 6
                    },
                    "indices" : 7,
                    "material" : 1
                },
                {
                    "attributes" : {
                        "POSITION" : 8,
                        "NORMAL" : 9,
                        "TEXCOORD_0" : 10
                    },
                    "indices" : 11,
                    "material" : 2
                }
            ]
        },
        {
            "name" : "Cube.002",
            "primitives" : [
                {
                    "attributes" : {
                        "POSITION" : 12,
                        "NORMAL" : 13,
                        "TANGENT" : 14,
                        "TEXCOORD_0" : 15
                    },
                    "indices" : 16
                }
            ]
        }
    ],
    "accessors" : [
        {
            "bufferView" : 0,
            "componentType" : 5126,
            "count" : 692,
            "max" : [
                1.000000238418579,
                1,
                1.0000003576278687
            ],
            "min" : [
                -0.9999998211860657,
                -1.379688024520874,
                -1
            ],
            "type" : "VEC3"
        },
        {
            "bufferView" : 1,
            "componentType" : 5126,
            "count" : 692,
            "type" : "VEC3"
        },
        {
            "bufferView" : 2,
            "componentType" : 5126,
            "count" : 692,
            "type" : "VEC2"
        },
        {
            "bufferView" : 3,
            "componentType" : 5123,
            "count" : 3834,
            "type" : "SCALAR"
        },
        {
            "bufferView" : 4,
            "componentType" : 5126,
            "count" : 1118,
            "max" : [
                1.0238680839538574,
                0.4325437545776367,
                0.6464406847953796
            ],
            "min" : [
                0.5309869050979614,
                -0.06033746898174286,
                -0.6464406251907349
            ],
            "type" : "VEC3"
        },
        {
            "bufferView" : 5,
            "componentType" : 5126,
            "count" : 1118,
            "type" : "VEC3"
        },
        {
            "bufferView" : 6,
            "componentType" : 5126,
            "count" : 1118,
            "type" : "VEC2"
        },
        {
            "bufferView" : 7,
            "componentType" : 5123,
            "count" : 5760,
            "type" : "SCALAR"
        },
        {
            "bufferView" : 8,
            "componentType" : 5126,
            "count" : 48,
            "max" : [
                0.9048675298690796,
                0.7514581084251404,
                0.6782927513122559
            ],
            "min" : [
                0.6163753271102905,
                0.4678156077861786,
                -0.6782926917076111
            ],
            "type" : "VEC3"
        },
        {
            "bufferView" : 9,
            "componentType" : 5126,
            "count" : 48,
            "type" : "VEC3"
        },
        {
            "bufferView" : 10,
            "componentType" : 5126,
            "count" : 48,
            "type" : "VEC2"
        },
        {
            "bufferView" : 11,
            "componentType" : 5123,
            "count" : 72,
            "type" : "SCALAR"
        },
        {
            "bufferView" : 12,
            "componentType" : 5126,
            "count" : 24,
            "max" : [
                1,
                1,
                1
            ],
            "min" : [
                -1,
                -1,
                -1
            ],
            "type" : "VEC3"
        },
        {
            "bufferView" : 13,
            "componentType" : 5126,
            "count" : 24,
            "type" : "VEC3"
        },
        {
            "bufferView" : 14,
            "componentType" : 5126,
            "count" : 24,
            "type" : "VEC4"
        },
        {
            "bufferView" : 15,
            "componentType" : 5126,
            "count" : 24,
            "type" : "VEC2"
        },
        {
            "bufferView" : 16,
            "componentType" : 5123,
            "count" : 36,
            "type" : "SCALAR"
        }
    ],
    "bufferViews" : [
        {
            "buffer" : 0,
            "byteLength" : 8304,
            "byteOffset" : 0
        },
        {
            "buffer" : 0,
            "byteLength" : 8304,
            "byteOffset" : 8304
        },
        {
            "buffer" : 0,
            "byteLength" : 5536,
            "byteOffset" : 16608
        },
        {
            "buffer" : 0,
            "byteLength" : 7668,
            "byteOffset" : 22144
        },
        {
            "buffer" : 0,
            "byteLength" : 13416,
            "byteOffset" : 29812
        },
        {
            "buffer" : 0,
            "byteLength" : 13416,
            "byteOffset" : 43228
        },
        {
            "buffer" : 0,
            "byteLength" : 8944,
            "byteOffset" : 56644
        },
        {
            "buffer" : 0,
            "byteLength" : 11520,
            "byteOffset" : 65588
        },
        {
            "buffer" : 0,
            "byteLength" : 576,
            "byteOffset" : 77108
        },
        {
            "buffer" : 0,
            "byteLength" : 576,
            "byteOffset" : 77684
        },
        {
            "buffer" : 0,
            "byteLength" : 384,
            "byteOffset" : 78260
        },
        {
            "buffer" : 0,
            "byteLength" : 144,
            "byteOffset" : 78644
        },
        {
            "buffer" : 0,
            "byteLength" : 288,
            "byteOffset" : 78788
        },
        {
            "buffer" : 0,
            "byteLength" : 288,
            "byteOffset" : 79076
        },
        {
            "buffer" : 0,
            "byteLength" : 384,
            "byteOffset" : 79364
        },
        {
            "buffer" : 0,
            "byteLength" : 192,
            "byteOffset" : 79748
        },
        {
            "buffer" : 0,
            "byteLength" : 72,
            "byteOffset" : 79940
        }
    ],
    "buffers" : [
        {
            "byteLength" : 80012,
            "uri" : "data:application/octet-stream;base64,"
        }
    ]
}
