{
    "asset" : {
        "generator" : "Khronos glTF Blender I/O v1.5.17",
        "version" : "2.0"
    },
    "scene" : 0,
    "scenes" : [
        {
            "name" : "Scene",
            "nodes" : [
                0,
                1,
                2
            ]
        }
    ],
    "nodes" : [
        {
            "mesh" : 0,
            "name" : "Sphere",
            "scale" : [
                25,
                25,
                24.9999942779541
            ]
        },
        {
            "mesh" : 1,
            "name" : "UP",
            "rotation" : [
                -0.06106738746166229,
                0,
                0,
                0.998133659362793
            ],
            "scale" : [
                24.66550064086914,
                24.665498733520508,
                24.665489196777344
            ],
            "translation" : [
                0.038128241896629333,
                -0.07346735894680023,
                -0.1102270781993866
            ]
        },
        {
            "mesh" : 2,
            "name" : "Down",
            "rotation" : [
                0,
                0.05744459852576256,
                -0.9983487129211426,
                -7.98100696641768e-09
            ],
            "scale" : [
                24.622621536254883,
                24.622621536254883,
                24.62261962890625
            ],
            "translation" : [
                0.016228660941123962,
                -0.23904670774936676,
                -0.002852141857147217
            ]
        }
    ],
    "animations" : [
        {
            "channels" : [
                {
                    "sampler" : 0,
                    "target" : {
                        "node" : 1,
                        "path" : "rotation"
                    }
                }
            ],
            "name" : "UPAction",
            "samplers" : [
                {
                    "input" : 11,
                    "interpolation" : "LINEAR",
                    "output" : 12
                }
            ]
        },
        {
            "channels" : [
                {
                    "sampler" : 0,
                    "target" : {
                        "node" : 2,
                        "path" : "rotation"
                    }
                }
            ],
            "name" : "DownAction",
            "samplers" : [
                {
                    "input" : 11,
                    "interpolation" : "LINEAR",
                    "output" : 13
                }
            ]
        }
    ],
    "materials" : [
        {
            "doubleSided" : true,
            "name" : "Material.001",
            "pbrMetallicRoughness" : {
                "baseColorFactor" : [
                    1,
                    0.5910677909851074,
                    0,
                    1
                ],
                "metallicFactor" : 0,
                "roughnessFactor" : 0.5
            }
        },
        {
            "doubleSided" : true,
            "name" : "Material.002",
            "pbrMetallicRoughness" : {
                "baseColorFactor" : [
                    1,
                    0.5910677909851074,
                    0,
                    1
                ],
                "metallicFactor" : 0,
                "roughnessFactor" : 0.5
            }
        },
        {
            "doubleSided" : true,
            "name" : "Material.003",
            "pbrMetallicRoughness" : {
                "baseColorFactor" : [
                    1,
                    0.5910677909851074,
                    0,
                    1
                ],
                "metallicFactor" : 0,
                "roughnessFactor" : 0.5
            }
        }
    ],
    "meshes" : [
        {
            "name" : "Sphere",
            "primitives" : [
                {
                    "attributes" : {
                        "POSITION" : 0,
                        "NORMAL" : 1,
                        "TEXCOORD_0" : 2
                    },
                    "indices" : 3,
                    "material" : 0
                }
            ]
        },
        {
            "name" : "Sphere.001",
            "primitives" : [
                {
                    "attributes" : {
                        "POSITION" : 4,
                        "NORMAL" : 5,
                        "TEXCOORD_0" : 6
                    },
                    "indices" : 7,
                    "material" : 1
                }
            ]
        },
        {
            "name" : "Sphere.002",
            "primitives" : [
                {
                    "attributes" : {
                        "POSITION" : 8,
                        "NORMAL" : 9,
                        "TEXCOORD_0" : 10
                    },
                    "indices" : 7,
                    "material" : 2
                }
            ]
        }
    ],
    "accessors" : [
        {
            "bufferView" : 0,
            "componentType" : 5126,
            "count" : 712,
            "max" : [
                0.9986345171928406,
                1,
                1.0000003576278687
            ],
            "min" : [
                -0.9986341595649719,
                -1,
                -0.7028754949569702
            ],
            "type" : "VEC3"
        },
        {
            "bufferView" : 1,
            "componentType" : 5126,
            "count" : 712,
            "type" : "VEC3"
        },
        {
            "bufferView" : 2,
            "componentType" : 5126,
            "count" : 712,
            "type" : "VEC2"
        },
        {
            "bufferView" : 3,
            "componentType" : 5123,
            "count" : 2922,
            "type" : "SCALAR"
        },
        {
            "bufferView" : 4,
            "componentType" : 5126,
            "count" : 378,
            "max" : [
                0.9986345171928406,
                1,
                1.0000003576278687
            ],
            "min" : [
                -0.9986341595649719,
                -0.0071290237829089165,
                -0.7028754949569702
            ],
            "type" : "VEC3"
        },
        {
            "bufferView" : 5,
            "componentType" : 5126,
            "count" : 378,
            "type" : "VEC3"
        },
        {
            "bufferView" : 6,
            "componentType" : 5126,
            "count" : 378,
            "type" : "VEC2"
        },
        {
            "bufferView" : 7,
            "componentType" : 5123,
            "count" : 1542,
            "type" : "SCALAR"
        },
        {
            "bufferView" : 8,
            "componentType" : 5126,
            "count" : 378,
            "max" : [
                0.9986345171928406,
                1,
                1.0000003576278687
            ],
            "min" : [
                -0.9986341595649719,
                -0.0071290237829089165,
                -0.7028754949569702
            ],
            "type" : "VEC3"
        },
        {
            "bufferView" : 9,
            "componentType" : 5126,
            "count" : 378,
            "type" : "VEC3"
        },
        {
            "bufferView" : 10,
            "componentType" : 5126,
            "count" : 378,
            "type" : "VEC2"
        },
        {
            "bufferView" : 11,
            "componentType" : 5126,
            "count" : 49,
            "max" : [
                2
            ],
            "min" : [
                0
            ],
            "type" : "SCALAR"
        },
        {
            "bufferView" : 12,
            "componentType" : 5126,
            "count" : 49,
            "type" : "VEC4"
        },
        {
            "bufferView" : 13,
            "componentType" : 5126,
            "count" : 49,
            "type" : "VEC4"
        }
    ],
    "bufferViews" : [
        {
            "buffer" : 0,
            "byteLength" : 8544,
            "byteOffset" : 0
        },
        {
            "buffer" : 0,
            "byteLength" : 8544,
            "byteOffset" : 8544
        },
        {
            "buffer" : 0,
            "byteLength" : 5696,
            "byteOffset" : 17088
        },
        {
            "buffer" : 0,
            "byteLength" : 5844,
            "byteOffset" : 22784
        },
        {
            "buffer" : 0,
            "byteLength" : 4536,
            "byteOffset" : 28628
        },
        {
            "buffer" : 0,
            "byteLength" : 4536,
            "byteOffset" : 33164
        },
        {
            "buffer" : 0,
            "byteLength" : 3024,
            "byteOffset" : 37700
        },
        {
            "buffer" : 0,
            "byteLength" : 3084,
            "byteOffset" : 40724
        },
        {
            "buffer" : 0,
            "byteLength" : 4536,
            "byteOffset" : 43808
        },
        {
            "buffer" : 0,
            "byteLength" : 4536,
            "byteOffset" : 48344
        },
        {
            "buffer" : 0,
            "byteLength" : 3024,
            "byteOffset" : 52880
        },
        {
            "buffer" : 0,
            "byteLength" : 196,
            "byteOffset" : 55904
        },
        {
            "buffer" : 0,
            "byteLength" : 784,
            "byteOffset" : 56100
        },
        {
            "buffer" : 0,
            "byteLength" : 784,
            "byteOffset" : 56884
        }
    ],
    "buffers" : [
        {
            "byteLength" : 57668,
            "uri" : "Pacman.bin"
        }
    ]
}
